<mxfile host="65bd71144e">
    <diagram id="S6L31jOvDiZtcp9Sf2Wv" name="Page-1">
        <mxGraphModel dx="1195" dy="1879" grid="1" gridSize="10" guides="1" tooltips="1" connect="1" arrows="1" fold="1" page="1" pageScale="1" pageWidth="850" pageHeight="1100" math="0" shadow="0">
            <root>
                <mxCell id="0"/>
                <mxCell id="1" parent="0"/>
                <mxCell id="39" value="" style="shape=table;startSize=0;container=1;collapsible=0;childLayout=tableLayout;fontStyle=1;align=center;fontSize=20;" vertex="1" parent="1">
                    <mxGeometry x="90" y="-1080" width="700" height="969" as="geometry"/>
                </mxCell>
                <mxCell id="3LBCeSW4Zflb0pGlj7fX-219" style="shape=tableRow;horizontal=0;startSize=0;swimlaneHead=0;swimlaneBody=0;top=0;left=0;bottom=0;right=0;collapsible=0;dropTarget=0;fillColor=none;points=[[0,0.5],[1,0.5]];portConstraint=eastwest;" vertex="1" parent="39">
                    <mxGeometry width="700" height="50" as="geometry"/>
                </mxCell>
                <mxCell id="3LBCeSW4Zflb0pGlj7fX-220" style="shape=partialRectangle;html=1;whiteSpace=wrap;connectable=0;fillColor=none;top=0;left=0;bottom=0;right=0;overflow=hidden;" vertex="1" parent="3LBCeSW4Zflb0pGlj7fX-219">
                    <mxGeometry width="233" height="50" as="geometry">
                        <mxRectangle width="233" height="50" as="alternateBounds"/>
                    </mxGeometry>
                </mxCell>
                <mxCell id="3LBCeSW4Zflb0pGlj7fX-221" value="API ROUTES" style="shape=partialRectangle;html=1;whiteSpace=wrap;connectable=0;fillColor=none;top=0;left=0;bottom=0;right=0;overflow=hidden;fontSize=32;" vertex="1" parent="3LBCeSW4Zflb0pGlj7fX-219">
                    <mxGeometry x="233" width="234" height="50" as="geometry">
                        <mxRectangle width="234" height="50" as="alternateBounds"/>
                    </mxGeometry>
                </mxCell>
                <mxCell id="3LBCeSW4Zflb0pGlj7fX-222" style="shape=partialRectangle;html=1;whiteSpace=wrap;connectable=0;fillColor=none;top=0;left=0;bottom=0;right=0;overflow=hidden;" vertex="1" parent="3LBCeSW4Zflb0pGlj7fX-219">
                    <mxGeometry x="467" width="233" height="50" as="geometry">
                        <mxRectangle width="233" height="50" as="alternateBounds"/>
                    </mxGeometry>
                </mxCell>
                <mxCell id="40" value="" style="shape=tableRow;horizontal=0;startSize=0;swimlaneHead=0;swimlaneBody=0;top=0;left=0;bottom=0;right=0;collapsible=0;dropTarget=0;fillColor=none;points=[[0,0.5],[1,0.5]];portConstraint=eastwest;" vertex="1" parent="39">
                    <mxGeometry y="50" width="700" height="50" as="geometry"/>
                </mxCell>
                <mxCell id="41" value="&lt;font style=&quot;font-size: 14px;&quot;&gt;Route&lt;/font&gt;" style="shape=partialRectangle;html=1;whiteSpace=wrap;connectable=0;fillColor=none;top=0;left=0;bottom=0;right=0;overflow=hidden;" vertex="1" parent="40">
                    <mxGeometry width="233" height="50" as="geometry">
                        <mxRectangle width="233" height="50" as="alternateBounds"/>
                    </mxGeometry>
                </mxCell>
                <mxCell id="42" value="&lt;font style=&quot;font-size: 14px;&quot;&gt;HTTP Verb&lt;/font&gt;" style="shape=partialRectangle;html=1;whiteSpace=wrap;connectable=0;fillColor=none;top=0;left=0;bottom=0;right=0;overflow=hidden;" vertex="1" parent="40">
                    <mxGeometry x="233" width="234" height="50" as="geometry">
                        <mxRectangle width="234" height="50" as="alternateBounds"/>
                    </mxGeometry>
                </mxCell>
                <mxCell id="43" value="&lt;font style=&quot;font-size: 14px;&quot;&gt;Purpose&lt;/font&gt;" style="shape=partialRectangle;html=1;whiteSpace=wrap;connectable=0;fillColor=none;top=0;left=0;bottom=0;right=0;overflow=hidden;" vertex="1" parent="40">
                    <mxGeometry x="467" width="233" height="50" as="geometry">
                        <mxRectangle width="233" height="50" as="alternateBounds"/>
                    </mxGeometry>
                </mxCell>
                <mxCell id="44" value="" style="shape=tableRow;horizontal=0;startSize=0;swimlaneHead=0;swimlaneBody=0;top=0;left=0;bottom=0;right=0;collapsible=0;dropTarget=0;fillColor=none;points=[[0,0.5],[1,0.5]];portConstraint=eastwest;" vertex="1" parent="39">
                    <mxGeometry y="100" width="700" height="25" as="geometry"/>
                </mxCell>
                <mxCell id="45" value="&lt;span style=&quot;font-size: 16px;&quot;&gt;/restaurants&lt;/span&gt;" style="shape=partialRectangle;html=1;whiteSpace=wrap;connectable=0;fillColor=none;top=0;left=0;bottom=0;right=0;overflow=hidden;" vertex="1" parent="44">
                    <mxGeometry width="233" height="25" as="geometry">
                        <mxRectangle width="233" height="25" as="alternateBounds"/>
                    </mxGeometry>
                </mxCell>
                <mxCell id="46" value="&lt;font style=&quot;font-size: 14px;&quot;&gt;GET&lt;/font&gt;" style="shape=partialRectangle;html=1;whiteSpace=wrap;connectable=0;fillColor=none;top=0;left=0;bottom=0;right=0;overflow=hidden;" vertex="1" parent="44">
                    <mxGeometry x="233" width="234" height="25" as="geometry">
                        <mxRectangle width="234" height="25" as="alternateBounds"/>
                    </mxGeometry>
                </mxCell>
                <mxCell id="47" value="&lt;font style=&quot;font-size: 14px;&quot;&gt;Show All Restaurants Avaliable&lt;/font&gt;" style="shape=partialRectangle;html=1;whiteSpace=wrap;connectable=0;fillColor=none;top=0;left=0;bottom=0;right=0;overflow=hidden;" vertex="1" parent="44">
                    <mxGeometry x="467" width="233" height="25" as="geometry">
                        <mxRectangle width="233" height="25" as="alternateBounds"/>
                    </mxGeometry>
                </mxCell>
                <mxCell id="48" value="" style="shape=tableRow;horizontal=0;startSize=0;swimlaneHead=0;swimlaneBody=0;top=0;left=0;bottom=0;right=0;collapsible=0;dropTarget=0;fillColor=none;points=[[0,0.5],[1,0.5]];portConstraint=eastwest;" vertex="1" parent="39">
                    <mxGeometry y="125" width="700" height="26" as="geometry"/>
                </mxCell>
                <mxCell id="49" value="&lt;span style=&quot;font-size: 16px;&quot;&gt;/restaurants&lt;/span&gt;" style="shape=partialRectangle;html=1;whiteSpace=wrap;connectable=0;fillColor=none;top=0;left=0;bottom=0;right=0;overflow=hidden;" vertex="1" parent="48">
                    <mxGeometry width="233" height="26" as="geometry">
                        <mxRectangle width="233" height="26" as="alternateBounds"/>
                    </mxGeometry>
                </mxCell>
                <mxCell id="50" value="&lt;font style=&quot;font-size: 14px;&quot;&gt;POST&lt;/font&gt;" style="shape=partialRectangle;html=1;whiteSpace=wrap;connectable=0;fillColor=none;top=0;left=0;bottom=0;right=0;overflow=hidden;" vertex="1" parent="48">
                    <mxGeometry x="233" width="234" height="26" as="geometry">
                        <mxRectangle width="234" height="26" as="alternateBounds"/>
                    </mxGeometry>
                </mxCell>
                <mxCell id="51" value="&lt;font style=&quot;font-size: 14px;&quot;&gt;ADMIN:&amp;nbsp; Add Restaurants&lt;/font&gt;" style="shape=partialRectangle;html=1;whiteSpace=wrap;connectable=0;fillColor=none;top=0;left=0;bottom=0;right=0;overflow=hidden;" vertex="1" parent="48">
                    <mxGeometry x="467" width="233" height="26" as="geometry">
                        <mxRectangle width="233" height="26" as="alternateBounds"/>
                    </mxGeometry>
                </mxCell>
                <mxCell id="3LBCeSW4Zflb0pGlj7fX-67" style="shape=tableRow;horizontal=0;startSize=0;swimlaneHead=0;swimlaneBody=0;top=0;left=0;bottom=0;right=0;collapsible=0;dropTarget=0;fillColor=none;points=[[0,0.5],[1,0.5]];portConstraint=eastwest;" vertex="1" parent="39">
                    <mxGeometry y="151" width="700" height="25" as="geometry"/>
                </mxCell>
                <mxCell id="3LBCeSW4Zflb0pGlj7fX-68" value="" style="shape=partialRectangle;html=1;whiteSpace=wrap;connectable=0;fillColor=none;top=0;left=0;bottom=0;right=0;overflow=hidden;" vertex="1" parent="3LBCeSW4Zflb0pGlj7fX-67">
                    <mxGeometry width="233" height="25" as="geometry">
                        <mxRectangle width="233" height="25" as="alternateBounds"/>
                    </mxGeometry>
                </mxCell>
                <mxCell id="3LBCeSW4Zflb0pGlj7fX-69" value="" style="shape=partialRectangle;html=1;whiteSpace=wrap;connectable=0;fillColor=none;top=0;left=0;bottom=0;right=0;overflow=hidden;" vertex="1" parent="3LBCeSW4Zflb0pGlj7fX-67">
                    <mxGeometry x="233" width="234" height="25" as="geometry">
                        <mxRectangle width="234" height="25" as="alternateBounds"/>
                    </mxGeometry>
                </mxCell>
                <mxCell id="3LBCeSW4Zflb0pGlj7fX-70" value="" style="shape=partialRectangle;html=1;whiteSpace=wrap;connectable=0;fillColor=none;top=0;left=0;bottom=0;right=0;overflow=hidden;" vertex="1" parent="3LBCeSW4Zflb0pGlj7fX-67">
                    <mxGeometry x="467" width="233" height="25" as="geometry">
                        <mxRectangle width="233" height="25" as="alternateBounds"/>
                    </mxGeometry>
                </mxCell>
                <mxCell id="3LBCeSW4Zflb0pGlj7fX-75" style="shape=tableRow;horizontal=0;startSize=0;swimlaneHead=0;swimlaneBody=0;top=0;left=0;bottom=0;right=0;collapsible=0;dropTarget=0;fillColor=none;points=[[0,0.5],[1,0.5]];portConstraint=eastwest;" vertex="1" parent="39">
                    <mxGeometry y="176" width="700" height="26" as="geometry"/>
                </mxCell>
                <mxCell id="3LBCeSW4Zflb0pGlj7fX-76" value="&lt;font style=&quot;font-size: 16px;&quot;&gt;/restaurants/id&lt;/font&gt;" style="shape=partialRectangle;html=1;whiteSpace=wrap;connectable=0;fillColor=none;top=0;left=0;bottom=0;right=0;overflow=hidden;" vertex="1" parent="3LBCeSW4Zflb0pGlj7fX-75">
                    <mxGeometry width="233" height="26" as="geometry">
                        <mxRectangle width="233" height="26" as="alternateBounds"/>
                    </mxGeometry>
                </mxCell>
                <mxCell id="3LBCeSW4Zflb0pGlj7fX-77" value="&lt;font style=&quot;font-size: 14px;&quot;&gt;GET&lt;/font&gt;" style="shape=partialRectangle;html=1;whiteSpace=wrap;connectable=0;fillColor=none;top=0;left=0;bottom=0;right=0;overflow=hidden;" vertex="1" parent="3LBCeSW4Zflb0pGlj7fX-75">
                    <mxGeometry x="233" width="234" height="26" as="geometry">
                        <mxRectangle width="234" height="26" as="alternateBounds"/>
                    </mxGeometry>
                </mxCell>
                <mxCell id="3LBCeSW4Zflb0pGlj7fX-78" value="Show Single Restaurants/Attributes" style="shape=partialRectangle;html=1;whiteSpace=wrap;connectable=0;fillColor=none;top=0;left=0;bottom=0;right=0;overflow=hidden;" vertex="1" parent="3LBCeSW4Zflb0pGlj7fX-75">
                    <mxGeometry x="467" width="233" height="26" as="geometry">
                        <mxRectangle width="233" height="26" as="alternateBounds"/>
                    </mxGeometry>
                </mxCell>
                <mxCell id="3LBCeSW4Zflb0pGlj7fX-79" style="shape=tableRow;horizontal=0;startSize=0;swimlaneHead=0;swimlaneBody=0;top=0;left=0;bottom=0;right=0;collapsible=0;dropTarget=0;fillColor=none;points=[[0,0.5],[1,0.5]];portConstraint=eastwest;" vertex="1" parent="39">
                    <mxGeometry y="202" width="700" height="26" as="geometry"/>
                </mxCell>
                <mxCell id="3LBCeSW4Zflb0pGlj7fX-80" value="&lt;span style=&quot;font-size: 16px;&quot;&gt;/restaurants/id&lt;/span&gt;" style="shape=partialRectangle;html=1;whiteSpace=wrap;connectable=0;fillColor=none;top=0;left=0;bottom=0;right=0;overflow=hidden;" vertex="1" parent="3LBCeSW4Zflb0pGlj7fX-79">
                    <mxGeometry width="233" height="26" as="geometry">
                        <mxRectangle width="233" height="26" as="alternateBounds"/>
                    </mxGeometry>
                </mxCell>
                <mxCell id="3LBCeSW4Zflb0pGlj7fX-81" value="&lt;font style=&quot;font-size: 14px;&quot;&gt;PATCH&lt;/font&gt;" style="shape=partialRectangle;html=1;whiteSpace=wrap;connectable=0;fillColor=none;top=0;left=0;bottom=0;right=0;overflow=hidden;" vertex="1" parent="3LBCeSW4Zflb0pGlj7fX-79">
                    <mxGeometry x="233" width="234" height="26" as="geometry">
                        <mxRectangle width="234" height="26" as="alternateBounds"/>
                    </mxGeometry>
                </mxCell>
                <mxCell id="3LBCeSW4Zflb0pGlj7fX-82" value="&lt;font style=&quot;font-size: 14px;&quot;&gt;Admin Fix / Update&lt;/font&gt;" style="shape=partialRectangle;html=1;whiteSpace=wrap;connectable=0;fillColor=none;top=0;left=0;bottom=0;right=0;overflow=hidden;" vertex="1" parent="3LBCeSW4Zflb0pGlj7fX-79">
                    <mxGeometry x="467" width="233" height="26" as="geometry">
                        <mxRectangle width="233" height="26" as="alternateBounds"/>
                    </mxGeometry>
                </mxCell>
                <mxCell id="3LBCeSW4Zflb0pGlj7fX-83" style="shape=tableRow;horizontal=0;startSize=0;swimlaneHead=0;swimlaneBody=0;top=0;left=0;bottom=0;right=0;collapsible=0;dropTarget=0;fillColor=none;points=[[0,0.5],[1,0.5]];portConstraint=eastwest;" vertex="1" parent="39">
                    <mxGeometry y="228" width="700" height="25" as="geometry"/>
                </mxCell>
                <mxCell id="3LBCeSW4Zflb0pGlj7fX-84" value="&lt;span style=&quot;font-size: 16px;&quot;&gt;/restaurants/id&lt;/span&gt;" style="shape=partialRectangle;html=1;whiteSpace=wrap;connectable=0;fillColor=none;top=0;left=0;bottom=0;right=0;overflow=hidden;" vertex="1" parent="3LBCeSW4Zflb0pGlj7fX-83">
                    <mxGeometry width="233" height="25" as="geometry">
                        <mxRectangle width="233" height="25" as="alternateBounds"/>
                    </mxGeometry>
                </mxCell>
                <mxCell id="3LBCeSW4Zflb0pGlj7fX-85" value="&lt;font style=&quot;font-size: 14px;&quot;&gt;DELETE&lt;/font&gt;" style="shape=partialRectangle;html=1;whiteSpace=wrap;connectable=0;fillColor=none;top=0;left=0;bottom=0;right=0;overflow=hidden;" vertex="1" parent="3LBCeSW4Zflb0pGlj7fX-83">
                    <mxGeometry x="233" width="234" height="25" as="geometry">
                        <mxRectangle width="234" height="25" as="alternateBounds"/>
                    </mxGeometry>
                </mxCell>
                <mxCell id="3LBCeSW4Zflb0pGlj7fX-86" value="&lt;font style=&quot;font-size: 14px;&quot;&gt;Admin Delete Restaurant&lt;/font&gt;" style="shape=partialRectangle;html=1;whiteSpace=wrap;connectable=0;fillColor=none;top=0;left=0;bottom=0;right=0;overflow=hidden;" vertex="1" parent="3LBCeSW4Zflb0pGlj7fX-83">
                    <mxGeometry x="467" width="233" height="25" as="geometry">
                        <mxRectangle width="233" height="25" as="alternateBounds"/>
                    </mxGeometry>
                </mxCell>
                <mxCell id="3LBCeSW4Zflb0pGlj7fX-87" style="shape=tableRow;horizontal=0;startSize=0;swimlaneHead=0;swimlaneBody=0;top=0;left=0;bottom=0;right=0;collapsible=0;dropTarget=0;fillColor=none;points=[[0,0.5],[1,0.5]];portConstraint=eastwest;" vertex="1" parent="39">
                    <mxGeometry y="253" width="700" height="26" as="geometry"/>
                </mxCell>
                <mxCell id="3LBCeSW4Zflb0pGlj7fX-88" value="" style="shape=partialRectangle;html=1;whiteSpace=wrap;connectable=0;fillColor=none;top=0;left=0;bottom=0;right=0;overflow=hidden;" vertex="1" parent="3LBCeSW4Zflb0pGlj7fX-87">
                    <mxGeometry width="233" height="26" as="geometry">
                        <mxRectangle width="233" height="26" as="alternateBounds"/>
                    </mxGeometry>
                </mxCell>
                <mxCell id="3LBCeSW4Zflb0pGlj7fX-89" value="" style="shape=partialRectangle;html=1;whiteSpace=wrap;connectable=0;fillColor=none;top=0;left=0;bottom=0;right=0;overflow=hidden;" vertex="1" parent="3LBCeSW4Zflb0pGlj7fX-87">
                    <mxGeometry x="233" width="234" height="26" as="geometry">
                        <mxRectangle width="234" height="26" as="alternateBounds"/>
                    </mxGeometry>
                </mxCell>
                <mxCell id="3LBCeSW4Zflb0pGlj7fX-90" value="" style="shape=partialRectangle;html=1;whiteSpace=wrap;connectable=0;fillColor=none;top=0;left=0;bottom=0;right=0;overflow=hidden;" vertex="1" parent="3LBCeSW4Zflb0pGlj7fX-87">
                    <mxGeometry x="467" width="233" height="26" as="geometry">
                        <mxRectangle width="233" height="26" as="alternateBounds"/>
                    </mxGeometry>
                </mxCell>
                <mxCell id="3LBCeSW4Zflb0pGlj7fX-95" style="shape=tableRow;horizontal=0;startSize=0;swimlaneHead=0;swimlaneBody=0;top=0;left=0;bottom=0;right=0;collapsible=0;dropTarget=0;fillColor=none;points=[[0,0.5],[1,0.5]];portConstraint=eastwest;" vertex="1" parent="39">
                    <mxGeometry y="279" width="700" height="25" as="geometry"/>
                </mxCell>
                <mxCell id="3LBCeSW4Zflb0pGlj7fX-96" value="&lt;font style=&quot;font-size: 16px;&quot;&gt;/reviews&lt;/font&gt;" style="shape=partialRectangle;html=1;whiteSpace=wrap;connectable=0;fillColor=none;top=0;left=0;bottom=0;right=0;overflow=hidden;" vertex="1" parent="3LBCeSW4Zflb0pGlj7fX-95">
                    <mxGeometry width="233" height="25" as="geometry">
                        <mxRectangle width="233" height="25" as="alternateBounds"/>
                    </mxGeometry>
                </mxCell>
                <mxCell id="3LBCeSW4Zflb0pGlj7fX-97" value="&lt;font style=&quot;font-size: 14px;&quot;&gt;GET&lt;/font&gt;" style="shape=partialRectangle;html=1;whiteSpace=wrap;connectable=0;fillColor=none;top=0;left=0;bottom=0;right=0;overflow=hidden;" vertex="1" parent="3LBCeSW4Zflb0pGlj7fX-95">
                    <mxGeometry x="233" width="234" height="25" as="geometry">
                        <mxRectangle width="234" height="25" as="alternateBounds"/>
                    </mxGeometry>
                </mxCell>
                <mxCell id="3LBCeSW4Zflb0pGlj7fX-98" value="&lt;font style=&quot;font-size: 14px;&quot;&gt;ADMIN View?&lt;/font&gt;" style="shape=partialRectangle;html=1;whiteSpace=wrap;connectable=0;fillColor=none;top=0;left=0;bottom=0;right=0;overflow=hidden;" vertex="1" parent="3LBCeSW4Zflb0pGlj7fX-95">
                    <mxGeometry x="467" width="233" height="25" as="geometry">
                        <mxRectangle width="233" height="25" as="alternateBounds"/>
                    </mxGeometry>
                </mxCell>
                <mxCell id="3LBCeSW4Zflb0pGlj7fX-99" style="shape=tableRow;horizontal=0;startSize=0;swimlaneHead=0;swimlaneBody=0;top=0;left=0;bottom=0;right=0;collapsible=0;dropTarget=0;fillColor=none;points=[[0,0.5],[1,0.5]];portConstraint=eastwest;" vertex="1" parent="39">
                    <mxGeometry y="304" width="700" height="26" as="geometry"/>
                </mxCell>
                <mxCell id="3LBCeSW4Zflb0pGlj7fX-100" value="&lt;font style=&quot;font-size: 16px;&quot;&gt;/reviews&lt;/font&gt;" style="shape=partialRectangle;html=1;whiteSpace=wrap;connectable=0;fillColor=none;top=0;left=0;bottom=0;right=0;overflow=hidden;" vertex="1" parent="3LBCeSW4Zflb0pGlj7fX-99">
                    <mxGeometry width="233" height="26" as="geometry">
                        <mxRectangle width="233" height="26" as="alternateBounds"/>
                    </mxGeometry>
                </mxCell>
                <mxCell id="3LBCeSW4Zflb0pGlj7fX-101" value="&lt;font style=&quot;font-size: 14px;&quot;&gt;POST&lt;/font&gt;" style="shape=partialRectangle;html=1;whiteSpace=wrap;connectable=0;fillColor=none;top=0;left=0;bottom=0;right=0;overflow=hidden;" vertex="1" parent="3LBCeSW4Zflb0pGlj7fX-99">
                    <mxGeometry x="233" width="234" height="26" as="geometry">
                        <mxRectangle width="234" height="26" as="alternateBounds"/>
                    </mxGeometry>
                </mxCell>
                <mxCell id="3LBCeSW4Zflb0pGlj7fX-102" value="&lt;font style=&quot;font-size: 14px;&quot;&gt;USER&amp;nbsp; Posted Review&lt;/font&gt;" style="shape=partialRectangle;html=1;whiteSpace=wrap;connectable=0;fillColor=none;top=0;left=0;bottom=0;right=0;overflow=hidden;" vertex="1" parent="3LBCeSW4Zflb0pGlj7fX-99">
                    <mxGeometry x="467" width="233" height="26" as="geometry">
                        <mxRectangle width="233" height="26" as="alternateBounds"/>
                    </mxGeometry>
                </mxCell>
                <mxCell id="3LBCeSW4Zflb0pGlj7fX-127" style="shape=tableRow;horizontal=0;startSize=0;swimlaneHead=0;swimlaneBody=0;top=0;left=0;bottom=0;right=0;collapsible=0;dropTarget=0;fillColor=none;points=[[0,0.5],[1,0.5]];portConstraint=eastwest;" vertex="1" parent="39">
                    <mxGeometry y="330" width="700" height="25" as="geometry"/>
                </mxCell>
                <mxCell id="3LBCeSW4Zflb0pGlj7fX-128" style="shape=partialRectangle;html=1;whiteSpace=wrap;connectable=0;fillColor=none;top=0;left=0;bottom=0;right=0;overflow=hidden;" vertex="1" parent="3LBCeSW4Zflb0pGlj7fX-127">
                    <mxGeometry width="233" height="25" as="geometry">
                        <mxRectangle width="233" height="25" as="alternateBounds"/>
                    </mxGeometry>
                </mxCell>
                <mxCell id="3LBCeSW4Zflb0pGlj7fX-129" style="shape=partialRectangle;html=1;whiteSpace=wrap;connectable=0;fillColor=none;top=0;left=0;bottom=0;right=0;overflow=hidden;" vertex="1" parent="3LBCeSW4Zflb0pGlj7fX-127">
                    <mxGeometry x="233" width="234" height="25" as="geometry">
                        <mxRectangle width="234" height="25" as="alternateBounds"/>
                    </mxGeometry>
                </mxCell>
                <mxCell id="3LBCeSW4Zflb0pGlj7fX-130" style="shape=partialRectangle;html=1;whiteSpace=wrap;connectable=0;fillColor=none;top=0;left=0;bottom=0;right=0;overflow=hidden;" vertex="1" parent="3LBCeSW4Zflb0pGlj7fX-127">
                    <mxGeometry x="467" width="233" height="25" as="geometry">
                        <mxRectangle width="233" height="25" as="alternateBounds"/>
                    </mxGeometry>
                </mxCell>
                <mxCell id="3LBCeSW4Zflb0pGlj7fX-103" style="shape=tableRow;horizontal=0;startSize=0;swimlaneHead=0;swimlaneBody=0;top=0;left=0;bottom=0;right=0;collapsible=0;dropTarget=0;fillColor=none;points=[[0,0.5],[1,0.5]];portConstraint=eastwest;" vertex="1" parent="39">
                    <mxGeometry y="355" width="700" height="26" as="geometry"/>
                </mxCell>
                <mxCell id="3LBCeSW4Zflb0pGlj7fX-104" value="&lt;span style=&quot;font-size: 16px;&quot;&gt;/reviews/id&lt;/span&gt;" style="shape=partialRectangle;html=1;whiteSpace=wrap;connectable=0;fillColor=none;top=0;left=0;bottom=0;right=0;overflow=hidden;fontSize=16;" vertex="1" parent="3LBCeSW4Zflb0pGlj7fX-103">
                    <mxGeometry width="233" height="26" as="geometry">
                        <mxRectangle width="233" height="26" as="alternateBounds"/>
                    </mxGeometry>
                </mxCell>
                <mxCell id="3LBCeSW4Zflb0pGlj7fX-105" value="&lt;font style=&quot;font-size: 14px;&quot;&gt;PATCH&lt;/font&gt;" style="shape=partialRectangle;html=1;whiteSpace=wrap;connectable=0;fillColor=none;top=0;left=0;bottom=0;right=0;overflow=hidden;" vertex="1" parent="3LBCeSW4Zflb0pGlj7fX-103">
                    <mxGeometry x="233" width="234" height="26" as="geometry">
                        <mxRectangle width="234" height="26" as="alternateBounds"/>
                    </mxGeometry>
                </mxCell>
                <mxCell id="3LBCeSW4Zflb0pGlj7fX-106" value="&lt;font style=&quot;font-size: 14px;&quot;&gt;USER Edit Review&lt;/font&gt;" style="shape=partialRectangle;html=1;whiteSpace=wrap;connectable=0;fillColor=none;top=0;left=0;bottom=0;right=0;overflow=hidden;" vertex="1" parent="3LBCeSW4Zflb0pGlj7fX-103">
                    <mxGeometry x="467" width="233" height="26" as="geometry">
                        <mxRectangle width="233" height="26" as="alternateBounds"/>
                    </mxGeometry>
                </mxCell>
                <mxCell id="3LBCeSW4Zflb0pGlj7fX-107" style="shape=tableRow;horizontal=0;startSize=0;swimlaneHead=0;swimlaneBody=0;top=0;left=0;bottom=0;right=0;collapsible=0;dropTarget=0;fillColor=none;points=[[0,0.5],[1,0.5]];portConstraint=eastwest;" vertex="1" parent="39">
                    <mxGeometry y="381" width="700" height="26" as="geometry"/>
                </mxCell>
                <mxCell id="3LBCeSW4Zflb0pGlj7fX-108" value="&lt;span style=&quot;font-size: 16px;&quot;&gt;/reviews/id&lt;/span&gt;" style="shape=partialRectangle;html=1;whiteSpace=wrap;connectable=0;fillColor=none;top=0;left=0;bottom=0;right=0;overflow=hidden;fontSize=16;" vertex="1" parent="3LBCeSW4Zflb0pGlj7fX-107">
                    <mxGeometry width="233" height="26" as="geometry">
                        <mxRectangle width="233" height="26" as="alternateBounds"/>
                    </mxGeometry>
                </mxCell>
                <mxCell id="3LBCeSW4Zflb0pGlj7fX-109" value="&lt;font style=&quot;font-size: 14px;&quot;&gt;DELETE&lt;/font&gt;" style="shape=partialRectangle;html=1;whiteSpace=wrap;connectable=0;fillColor=none;top=0;left=0;bottom=0;right=0;overflow=hidden;" vertex="1" parent="3LBCeSW4Zflb0pGlj7fX-107">
                    <mxGeometry x="233" width="234" height="26" as="geometry">
                        <mxRectangle width="234" height="26" as="alternateBounds"/>
                    </mxGeometry>
                </mxCell>
                <mxCell id="3LBCeSW4Zflb0pGlj7fX-110" value="&lt;font style=&quot;font-size: 14px;&quot;&gt;USER/ADMIN Delete Review&lt;/font&gt;" style="shape=partialRectangle;html=1;whiteSpace=wrap;connectable=0;fillColor=none;top=0;left=0;bottom=0;right=0;overflow=hidden;" vertex="1" parent="3LBCeSW4Zflb0pGlj7fX-107">
                    <mxGeometry x="467" width="233" height="26" as="geometry">
                        <mxRectangle width="233" height="26" as="alternateBounds"/>
                    </mxGeometry>
                </mxCell>
                <mxCell id="3LBCeSW4Zflb0pGlj7fX-111" style="shape=tableRow;horizontal=0;startSize=0;swimlaneHead=0;swimlaneBody=0;top=0;left=0;bottom=0;right=0;collapsible=0;dropTarget=0;fillColor=none;points=[[0,0.5],[1,0.5]];portConstraint=eastwest;" vertex="1" parent="39">
                    <mxGeometry y="407" width="700" height="25" as="geometry"/>
                </mxCell>
                <mxCell id="3LBCeSW4Zflb0pGlj7fX-112" style="shape=partialRectangle;html=1;whiteSpace=wrap;connectable=0;fillColor=none;top=0;left=0;bottom=0;right=0;overflow=hidden;" vertex="1" parent="3LBCeSW4Zflb0pGlj7fX-111">
                    <mxGeometry width="233" height="25" as="geometry">
                        <mxRectangle width="233" height="25" as="alternateBounds"/>
                    </mxGeometry>
                </mxCell>
                <mxCell id="3LBCeSW4Zflb0pGlj7fX-113" style="shape=partialRectangle;html=1;whiteSpace=wrap;connectable=0;fillColor=none;top=0;left=0;bottom=0;right=0;overflow=hidden;" vertex="1" parent="3LBCeSW4Zflb0pGlj7fX-111">
                    <mxGeometry x="233" width="234" height="25" as="geometry">
                        <mxRectangle width="234" height="25" as="alternateBounds"/>
                    </mxGeometry>
                </mxCell>
                <mxCell id="3LBCeSW4Zflb0pGlj7fX-114" style="shape=partialRectangle;html=1;whiteSpace=wrap;connectable=0;fillColor=none;top=0;left=0;bottom=0;right=0;overflow=hidden;" vertex="1" parent="3LBCeSW4Zflb0pGlj7fX-111">
                    <mxGeometry x="467" width="233" height="25" as="geometry">
                        <mxRectangle width="233" height="25" as="alternateBounds"/>
                    </mxGeometry>
                </mxCell>
                <mxCell id="3LBCeSW4Zflb0pGlj7fX-159" style="shape=tableRow;horizontal=0;startSize=0;swimlaneHead=0;swimlaneBody=0;top=0;left=0;bottom=0;right=0;collapsible=0;dropTarget=0;fillColor=none;points=[[0,0.5],[1,0.5]];portConstraint=eastwest;" vertex="1" parent="39">
                    <mxGeometry y="432" width="700" height="26" as="geometry"/>
                </mxCell>
                <mxCell id="3LBCeSW4Zflb0pGlj7fX-160" value="/reservations" style="shape=partialRectangle;html=1;whiteSpace=wrap;connectable=0;fillColor=none;top=0;left=0;bottom=0;right=0;overflow=hidden;fontSize=16;" vertex="1" parent="3LBCeSW4Zflb0pGlj7fX-159">
                    <mxGeometry width="233" height="26" as="geometry">
                        <mxRectangle width="233" height="26" as="alternateBounds"/>
                    </mxGeometry>
                </mxCell>
                <mxCell id="3LBCeSW4Zflb0pGlj7fX-161" value="&lt;font style=&quot;font-size: 14px;&quot;&gt;GET&lt;/font&gt;" style="shape=partialRectangle;html=1;whiteSpace=wrap;connectable=0;fillColor=none;top=0;left=0;bottom=0;right=0;overflow=hidden;" vertex="1" parent="3LBCeSW4Zflb0pGlj7fX-159">
                    <mxGeometry x="233" width="234" height="26" as="geometry">
                        <mxRectangle width="234" height="26" as="alternateBounds"/>
                    </mxGeometry>
                </mxCell>
                <mxCell id="3LBCeSW4Zflb0pGlj7fX-162" value="ADMIN ONLY? See all reservations?" style="shape=partialRectangle;html=1;whiteSpace=wrap;connectable=0;fillColor=none;top=0;left=0;bottom=0;right=0;overflow=hidden;" vertex="1" parent="3LBCeSW4Zflb0pGlj7fX-159">
                    <mxGeometry x="467" width="233" height="26" as="geometry">
                        <mxRectangle width="233" height="26" as="alternateBounds"/>
                    </mxGeometry>
                </mxCell>
                <mxCell id="3LBCeSW4Zflb0pGlj7fX-151" style="shape=tableRow;horizontal=0;startSize=0;swimlaneHead=0;swimlaneBody=0;top=0;left=0;bottom=0;right=0;collapsible=0;dropTarget=0;fillColor=none;points=[[0,0.5],[1,0.5]];portConstraint=eastwest;" vertex="1" parent="39">
                    <mxGeometry y="458" width="700" height="25" as="geometry"/>
                </mxCell>
                <mxCell id="3LBCeSW4Zflb0pGlj7fX-152" value="&lt;span style=&quot;font-size: 16px;&quot;&gt;/reservations&lt;/span&gt;" style="shape=partialRectangle;html=1;whiteSpace=wrap;connectable=0;fillColor=none;top=0;left=0;bottom=0;right=0;overflow=hidden;" vertex="1" parent="3LBCeSW4Zflb0pGlj7fX-151">
                    <mxGeometry width="233" height="25" as="geometry">
                        <mxRectangle width="233" height="25" as="alternateBounds"/>
                    </mxGeometry>
                </mxCell>
                <mxCell id="3LBCeSW4Zflb0pGlj7fX-153" value="&lt;font style=&quot;font-size: 14px;&quot;&gt;POST&lt;/font&gt;" style="shape=partialRectangle;html=1;whiteSpace=wrap;connectable=0;fillColor=none;top=0;left=0;bottom=0;right=0;overflow=hidden;" vertex="1" parent="3LBCeSW4Zflb0pGlj7fX-151">
                    <mxGeometry x="233" width="234" height="25" as="geometry">
                        <mxRectangle width="234" height="25" as="alternateBounds"/>
                    </mxGeometry>
                </mxCell>
                <mxCell id="3LBCeSW4Zflb0pGlj7fX-154" value="USER Make a reservation" style="shape=partialRectangle;html=1;whiteSpace=wrap;connectable=0;fillColor=none;top=0;left=0;bottom=0;right=0;overflow=hidden;fontSize=14;" vertex="1" parent="3LBCeSW4Zflb0pGlj7fX-151">
                    <mxGeometry x="467" width="233" height="25" as="geometry">
                        <mxRectangle width="233" height="25" as="alternateBounds"/>
                    </mxGeometry>
                </mxCell>
                <mxCell id="3LBCeSW4Zflb0pGlj7fX-147" style="shape=tableRow;horizontal=0;startSize=0;swimlaneHead=0;swimlaneBody=0;top=0;left=0;bottom=0;right=0;collapsible=0;dropTarget=0;fillColor=none;points=[[0,0.5],[1,0.5]];portConstraint=eastwest;" vertex="1" parent="39">
                    <mxGeometry y="483" width="700" height="26" as="geometry"/>
                </mxCell>
                <mxCell id="3LBCeSW4Zflb0pGlj7fX-148" style="shape=partialRectangle;html=1;whiteSpace=wrap;connectable=0;fillColor=none;top=0;left=0;bottom=0;right=0;overflow=hidden;" vertex="1" parent="3LBCeSW4Zflb0pGlj7fX-147">
                    <mxGeometry width="233" height="26" as="geometry">
                        <mxRectangle width="233" height="26" as="alternateBounds"/>
                    </mxGeometry>
                </mxCell>
                <mxCell id="3LBCeSW4Zflb0pGlj7fX-149" style="shape=partialRectangle;html=1;whiteSpace=wrap;connectable=0;fillColor=none;top=0;left=0;bottom=0;right=0;overflow=hidden;" vertex="1" parent="3LBCeSW4Zflb0pGlj7fX-147">
                    <mxGeometry x="233" width="234" height="26" as="geometry">
                        <mxRectangle width="234" height="26" as="alternateBounds"/>
                    </mxGeometry>
                </mxCell>
                <mxCell id="3LBCeSW4Zflb0pGlj7fX-150" style="shape=partialRectangle;html=1;whiteSpace=wrap;connectable=0;fillColor=none;top=0;left=0;bottom=0;right=0;overflow=hidden;" vertex="1" parent="3LBCeSW4Zflb0pGlj7fX-147">
                    <mxGeometry x="467" width="233" height="26" as="geometry">
                        <mxRectangle width="233" height="26" as="alternateBounds"/>
                    </mxGeometry>
                </mxCell>
                <mxCell id="3LBCeSW4Zflb0pGlj7fX-143" style="shape=tableRow;horizontal=0;startSize=0;swimlaneHead=0;swimlaneBody=0;top=0;left=0;bottom=0;right=0;collapsible=0;dropTarget=0;fillColor=none;points=[[0,0.5],[1,0.5]];portConstraint=eastwest;" vertex="1" parent="39">
                    <mxGeometry y="509" width="700" height="25" as="geometry"/>
                </mxCell>
                <mxCell id="3LBCeSW4Zflb0pGlj7fX-144" value="&lt;font style=&quot;font-size: 16px;&quot;&gt;/reservations/id&lt;/font&gt;" style="shape=partialRectangle;html=1;whiteSpace=wrap;connectable=0;fillColor=none;top=0;left=0;bottom=0;right=0;overflow=hidden;" vertex="1" parent="3LBCeSW4Zflb0pGlj7fX-143">
                    <mxGeometry width="233" height="25" as="geometry">
                        <mxRectangle width="233" height="25" as="alternateBounds"/>
                    </mxGeometry>
                </mxCell>
                <mxCell id="3LBCeSW4Zflb0pGlj7fX-145" value="&lt;font style=&quot;font-size: 14px;&quot;&gt;GET&lt;/font&gt;" style="shape=partialRectangle;html=1;whiteSpace=wrap;connectable=0;fillColor=none;top=0;left=0;bottom=0;right=0;overflow=hidden;" vertex="1" parent="3LBCeSW4Zflb0pGlj7fX-143">
                    <mxGeometry x="233" width="234" height="25" as="geometry">
                        <mxRectangle width="234" height="25" as="alternateBounds"/>
                    </mxGeometry>
                </mxCell>
                <mxCell id="3LBCeSW4Zflb0pGlj7fX-146" value="ADMIN Pull up reservation" style="shape=partialRectangle;html=1;whiteSpace=wrap;connectable=0;fillColor=none;top=0;left=0;bottom=0;right=0;overflow=hidden;fontSize=14;" vertex="1" parent="3LBCeSW4Zflb0pGlj7fX-143">
                    <mxGeometry x="467" width="233" height="25" as="geometry">
                        <mxRectangle width="233" height="25" as="alternateBounds"/>
                    </mxGeometry>
                </mxCell>
                <mxCell id="3LBCeSW4Zflb0pGlj7fX-139" style="shape=tableRow;horizontal=0;startSize=0;swimlaneHead=0;swimlaneBody=0;top=0;left=0;bottom=0;right=0;collapsible=0;dropTarget=0;fillColor=none;points=[[0,0.5],[1,0.5]];portConstraint=eastwest;" vertex="1" parent="39">
                    <mxGeometry y="534" width="700" height="26" as="geometry"/>
                </mxCell>
                <mxCell id="3LBCeSW4Zflb0pGlj7fX-140" value="&lt;span style=&quot;font-size: 16px;&quot;&gt;/reservations/id&lt;/span&gt;" style="shape=partialRectangle;html=1;whiteSpace=wrap;connectable=0;fillColor=none;top=0;left=0;bottom=0;right=0;overflow=hidden;" vertex="1" parent="3LBCeSW4Zflb0pGlj7fX-139">
                    <mxGeometry width="233" height="26" as="geometry">
                        <mxRectangle width="233" height="26" as="alternateBounds"/>
                    </mxGeometry>
                </mxCell>
                <mxCell id="3LBCeSW4Zflb0pGlj7fX-141" value="&lt;font style=&quot;font-size: 14px;&quot;&gt;PATCH&lt;/font&gt;" style="shape=partialRectangle;html=1;whiteSpace=wrap;connectable=0;fillColor=none;top=0;left=0;bottom=0;right=0;overflow=hidden;" vertex="1" parent="3LBCeSW4Zflb0pGlj7fX-139">
                    <mxGeometry x="233" width="234" height="26" as="geometry">
                        <mxRectangle width="234" height="26" as="alternateBounds"/>
                    </mxGeometry>
                </mxCell>
                <mxCell id="3LBCeSW4Zflb0pGlj7fX-142" value="USER or ADMIN Change Reservation" style="shape=partialRectangle;html=1;whiteSpace=wrap;connectable=0;fillColor=none;top=0;left=0;bottom=0;right=0;overflow=hidden;" vertex="1" parent="3LBCeSW4Zflb0pGlj7fX-139">
                    <mxGeometry x="467" width="233" height="26" as="geometry">
                        <mxRectangle width="233" height="26" as="alternateBounds"/>
                    </mxGeometry>
                </mxCell>
                <mxCell id="3LBCeSW4Zflb0pGlj7fX-135" style="shape=tableRow;horizontal=0;startSize=0;swimlaneHead=0;swimlaneBody=0;top=0;left=0;bottom=0;right=0;collapsible=0;dropTarget=0;fillColor=none;points=[[0,0.5],[1,0.5]];portConstraint=eastwest;" vertex="1" parent="39">
                    <mxGeometry y="560" width="700" height="26" as="geometry"/>
                </mxCell>
                <mxCell id="3LBCeSW4Zflb0pGlj7fX-136" value="&lt;span style=&quot;font-size: 16px;&quot;&gt;/reservations/id&lt;/span&gt;" style="shape=partialRectangle;html=1;whiteSpace=wrap;connectable=0;fillColor=none;top=0;left=0;bottom=0;right=0;overflow=hidden;" vertex="1" parent="3LBCeSW4Zflb0pGlj7fX-135">
                    <mxGeometry width="233" height="26" as="geometry">
                        <mxRectangle width="233" height="26" as="alternateBounds"/>
                    </mxGeometry>
                </mxCell>
                <mxCell id="3LBCeSW4Zflb0pGlj7fX-137" value="&lt;font style=&quot;font-size: 14px;&quot;&gt;DELETE&lt;/font&gt;" style="shape=partialRectangle;html=1;whiteSpace=wrap;connectable=0;fillColor=none;top=0;left=0;bottom=0;right=0;overflow=hidden;" vertex="1" parent="3LBCeSW4Zflb0pGlj7fX-135">
                    <mxGeometry x="233" width="234" height="26" as="geometry">
                        <mxRectangle width="234" height="26" as="alternateBounds"/>
                    </mxGeometry>
                </mxCell>
                <mxCell id="3LBCeSW4Zflb0pGlj7fX-138" value="USER or ADMIN Delete Reservation" style="shape=partialRectangle;html=1;whiteSpace=wrap;connectable=0;fillColor=none;top=0;left=0;bottom=0;right=0;overflow=hidden;" vertex="1" parent="3LBCeSW4Zflb0pGlj7fX-135">
                    <mxGeometry x="467" width="233" height="26" as="geometry">
                        <mxRectangle width="233" height="26" as="alternateBounds"/>
                    </mxGeometry>
                </mxCell>
                <mxCell id="3LBCeSW4Zflb0pGlj7fX-131" style="shape=tableRow;horizontal=0;startSize=0;swimlaneHead=0;swimlaneBody=0;top=0;left=0;bottom=0;right=0;collapsible=0;dropTarget=0;fillColor=none;points=[[0,0.5],[1,0.5]];portConstraint=eastwest;" vertex="1" parent="39">
                    <mxGeometry y="586" width="700" height="25" as="geometry"/>
                </mxCell>
                <mxCell id="3LBCeSW4Zflb0pGlj7fX-132" style="shape=partialRectangle;html=1;whiteSpace=wrap;connectable=0;fillColor=none;top=0;left=0;bottom=0;right=0;overflow=hidden;" vertex="1" parent="3LBCeSW4Zflb0pGlj7fX-131">
                    <mxGeometry width="233" height="25" as="geometry">
                        <mxRectangle width="233" height="25" as="alternateBounds"/>
                    </mxGeometry>
                </mxCell>
                <mxCell id="3LBCeSW4Zflb0pGlj7fX-133" style="shape=partialRectangle;html=1;whiteSpace=wrap;connectable=0;fillColor=none;top=0;left=0;bottom=0;right=0;overflow=hidden;" vertex="1" parent="3LBCeSW4Zflb0pGlj7fX-131">
                    <mxGeometry x="233" width="234" height="25" as="geometry">
                        <mxRectangle width="234" height="25" as="alternateBounds"/>
                    </mxGeometry>
                </mxCell>
                <mxCell id="3LBCeSW4Zflb0pGlj7fX-134" style="shape=partialRectangle;html=1;whiteSpace=wrap;connectable=0;fillColor=none;top=0;left=0;bottom=0;right=0;overflow=hidden;" vertex="1" parent="3LBCeSW4Zflb0pGlj7fX-131">
                    <mxGeometry x="467" width="233" height="25" as="geometry">
                        <mxRectangle width="233" height="25" as="alternateBounds"/>
                    </mxGeometry>
                </mxCell>
                <mxCell id="3LBCeSW4Zflb0pGlj7fX-179" style="shape=tableRow;horizontal=0;startSize=0;swimlaneHead=0;swimlaneBody=0;top=0;left=0;bottom=0;right=0;collapsible=0;dropTarget=0;fillColor=none;points=[[0,0.5],[1,0.5]];portConstraint=eastwest;" vertex="1" parent="39">
                    <mxGeometry y="611" width="700" height="26" as="geometry"/>
                </mxCell>
                <mxCell id="3LBCeSW4Zflb0pGlj7fX-180" value="/users" style="shape=partialRectangle;html=1;whiteSpace=wrap;connectable=0;fillColor=none;top=0;left=0;bottom=0;right=0;overflow=hidden;fontSize=16;" vertex="1" parent="3LBCeSW4Zflb0pGlj7fX-179">
                    <mxGeometry width="233" height="26" as="geometry">
                        <mxRectangle width="233" height="26" as="alternateBounds"/>
                    </mxGeometry>
                </mxCell>
                <mxCell id="3LBCeSW4Zflb0pGlj7fX-181" value="GET" style="shape=partialRectangle;html=1;whiteSpace=wrap;connectable=0;fillColor=none;top=0;left=0;bottom=0;right=0;overflow=hidden;fontSize=14;" vertex="1" parent="3LBCeSW4Zflb0pGlj7fX-179">
                    <mxGeometry x="233" width="234" height="26" as="geometry">
                        <mxRectangle width="234" height="26" as="alternateBounds"/>
                    </mxGeometry>
                </mxCell>
                <mxCell id="3LBCeSW4Zflb0pGlj7fX-182" value="ADMIN&amp;nbsp;List all users" style="shape=partialRectangle;html=1;whiteSpace=wrap;connectable=0;fillColor=none;top=0;left=0;bottom=0;right=0;overflow=hidden;fontSize=14;" vertex="1" parent="3LBCeSW4Zflb0pGlj7fX-179">
                    <mxGeometry x="467" width="233" height="26" as="geometry">
                        <mxRectangle width="233" height="26" as="alternateBounds"/>
                    </mxGeometry>
                </mxCell>
                <mxCell id="3LBCeSW4Zflb0pGlj7fX-175" style="shape=tableRow;horizontal=0;startSize=0;swimlaneHead=0;swimlaneBody=0;top=0;left=0;bottom=0;right=0;collapsible=0;dropTarget=0;fillColor=none;points=[[0,0.5],[1,0.5]];portConstraint=eastwest;" vertex="1" parent="39">
                    <mxGeometry y="637" width="700" height="25" as="geometry"/>
                </mxCell>
                <mxCell id="3LBCeSW4Zflb0pGlj7fX-176" value="&lt;span style=&quot;font-size: 16px;&quot;&gt;/users&lt;/span&gt;" style="shape=partialRectangle;html=1;whiteSpace=wrap;connectable=0;fillColor=none;top=0;left=0;bottom=0;right=0;overflow=hidden;" vertex="1" parent="3LBCeSW4Zflb0pGlj7fX-175">
                    <mxGeometry width="233" height="25" as="geometry">
                        <mxRectangle width="233" height="25" as="alternateBounds"/>
                    </mxGeometry>
                </mxCell>
                <mxCell id="3LBCeSW4Zflb0pGlj7fX-177" value="&lt;span style=&quot;font-size: 14px;&quot;&gt;POST&lt;/span&gt;" style="shape=partialRectangle;html=1;whiteSpace=wrap;connectable=0;fillColor=none;top=0;left=0;bottom=0;right=0;overflow=hidden;" vertex="1" parent="3LBCeSW4Zflb0pGlj7fX-175">
                    <mxGeometry x="233" width="234" height="25" as="geometry">
                        <mxRectangle width="234" height="25" as="alternateBounds"/>
                    </mxGeometry>
                </mxCell>
                <mxCell id="3LBCeSW4Zflb0pGlj7fX-178" value="USER Adds new&amp;nbsp;" style="shape=partialRectangle;html=1;whiteSpace=wrap;connectable=0;fillColor=none;top=0;left=0;bottom=0;right=0;overflow=hidden;fontSize=14;" vertex="1" parent="3LBCeSW4Zflb0pGlj7fX-175">
                    <mxGeometry x="467" width="233" height="25" as="geometry">
                        <mxRectangle width="233" height="25" as="alternateBounds"/>
                    </mxGeometry>
                </mxCell>
                <mxCell id="3LBCeSW4Zflb0pGlj7fX-171" style="shape=tableRow;horizontal=0;startSize=0;swimlaneHead=0;swimlaneBody=0;top=0;left=0;bottom=0;right=0;collapsible=0;dropTarget=0;fillColor=none;points=[[0,0.5],[1,0.5]];portConstraint=eastwest;" vertex="1" parent="39">
                    <mxGeometry y="662" width="700" height="26" as="geometry"/>
                </mxCell>
                <mxCell id="3LBCeSW4Zflb0pGlj7fX-172" style="shape=partialRectangle;html=1;whiteSpace=wrap;connectable=0;fillColor=none;top=0;left=0;bottom=0;right=0;overflow=hidden;" vertex="1" parent="3LBCeSW4Zflb0pGlj7fX-171">
                    <mxGeometry width="233" height="26" as="geometry">
                        <mxRectangle width="233" height="26" as="alternateBounds"/>
                    </mxGeometry>
                </mxCell>
                <mxCell id="3LBCeSW4Zflb0pGlj7fX-173" style="shape=partialRectangle;html=1;whiteSpace=wrap;connectable=0;fillColor=none;top=0;left=0;bottom=0;right=0;overflow=hidden;" vertex="1" parent="3LBCeSW4Zflb0pGlj7fX-171">
                    <mxGeometry x="233" width="234" height="26" as="geometry">
                        <mxRectangle width="234" height="26" as="alternateBounds"/>
                    </mxGeometry>
                </mxCell>
                <mxCell id="3LBCeSW4Zflb0pGlj7fX-174" style="shape=partialRectangle;html=1;whiteSpace=wrap;connectable=0;fillColor=none;top=0;left=0;bottom=0;right=0;overflow=hidden;" vertex="1" parent="3LBCeSW4Zflb0pGlj7fX-171">
                    <mxGeometry x="467" width="233" height="26" as="geometry">
                        <mxRectangle width="233" height="26" as="alternateBounds"/>
                    </mxGeometry>
                </mxCell>
                <mxCell id="3LBCeSW4Zflb0pGlj7fX-207" style="shape=tableRow;horizontal=0;startSize=0;swimlaneHead=0;swimlaneBody=0;top=0;left=0;bottom=0;right=0;collapsible=0;dropTarget=0;fillColor=none;points=[[0,0.5],[1,0.5]];portConstraint=eastwest;" vertex="1" parent="39">
                    <mxGeometry y="688" width="700" height="25" as="geometry"/>
                </mxCell>
                <mxCell id="3LBCeSW4Zflb0pGlj7fX-208" value="/users/id" style="shape=partialRectangle;html=1;whiteSpace=wrap;connectable=0;fillColor=none;top=0;left=0;bottom=0;right=0;overflow=hidden;fontSize=16;" vertex="1" parent="3LBCeSW4Zflb0pGlj7fX-207">
                    <mxGeometry width="233" height="25" as="geometry">
                        <mxRectangle width="233" height="25" as="alternateBounds"/>
                    </mxGeometry>
                </mxCell>
                <mxCell id="3LBCeSW4Zflb0pGlj7fX-209" value="&lt;span style=&quot;font-size: 14px;&quot;&gt;GET&lt;/span&gt;" style="shape=partialRectangle;html=1;whiteSpace=wrap;connectable=0;fillColor=none;top=0;left=0;bottom=0;right=0;overflow=hidden;" vertex="1" parent="3LBCeSW4Zflb0pGlj7fX-207">
                    <mxGeometry x="233" width="234" height="25" as="geometry">
                        <mxRectangle width="234" height="25" as="alternateBounds"/>
                    </mxGeometry>
                </mxCell>
                <mxCell id="3LBCeSW4Zflb0pGlj7fX-210" value="Display single user info" style="shape=partialRectangle;html=1;whiteSpace=wrap;connectable=0;fillColor=none;top=0;left=0;bottom=0;right=0;overflow=hidden;fontSize=14;" vertex="1" parent="3LBCeSW4Zflb0pGlj7fX-207">
                    <mxGeometry x="467" width="233" height="25" as="geometry">
                        <mxRectangle width="233" height="25" as="alternateBounds"/>
                    </mxGeometry>
                </mxCell>
                <mxCell id="3LBCeSW4Zflb0pGlj7fX-203" style="shape=tableRow;horizontal=0;startSize=0;swimlaneHead=0;swimlaneBody=0;top=0;left=0;bottom=0;right=0;collapsible=0;dropTarget=0;fillColor=none;points=[[0,0.5],[1,0.5]];portConstraint=eastwest;" vertex="1" parent="39">
                    <mxGeometry y="713" width="700" height="26" as="geometry"/>
                </mxCell>
                <mxCell id="3LBCeSW4Zflb0pGlj7fX-204" value="&lt;span style=&quot;font-size: 16px;&quot;&gt;/users/id&lt;/span&gt;" style="shape=partialRectangle;html=1;whiteSpace=wrap;connectable=0;fillColor=none;top=0;left=0;bottom=0;right=0;overflow=hidden;" vertex="1" parent="3LBCeSW4Zflb0pGlj7fX-203">
                    <mxGeometry width="233" height="26" as="geometry">
                        <mxRectangle width="233" height="26" as="alternateBounds"/>
                    </mxGeometry>
                </mxCell>
                <mxCell id="3LBCeSW4Zflb0pGlj7fX-205" value="&lt;span style=&quot;font-size: 14px;&quot;&gt;PATCH&lt;/span&gt;" style="shape=partialRectangle;html=1;whiteSpace=wrap;connectable=0;fillColor=none;top=0;left=0;bottom=0;right=0;overflow=hidden;" vertex="1" parent="3LBCeSW4Zflb0pGlj7fX-203">
                    <mxGeometry x="233" width="234" height="26" as="geometry">
                        <mxRectangle width="234" height="26" as="alternateBounds"/>
                    </mxGeometry>
                </mxCell>
                <mxCell id="3LBCeSW4Zflb0pGlj7fX-206" value="Update user info" style="shape=partialRectangle;html=1;whiteSpace=wrap;connectable=0;fillColor=none;top=0;left=0;bottom=0;right=0;overflow=hidden;fontSize=14;" vertex="1" parent="3LBCeSW4Zflb0pGlj7fX-203">
                    <mxGeometry x="467" width="233" height="26" as="geometry">
                        <mxRectangle width="233" height="26" as="alternateBounds"/>
                    </mxGeometry>
                </mxCell>
                <mxCell id="3LBCeSW4Zflb0pGlj7fX-199" style="shape=tableRow;horizontal=0;startSize=0;swimlaneHead=0;swimlaneBody=0;top=0;left=0;bottom=0;right=0;collapsible=0;dropTarget=0;fillColor=none;points=[[0,0.5],[1,0.5]];portConstraint=eastwest;" vertex="1" parent="39">
                    <mxGeometry y="739" width="700" height="25" as="geometry"/>
                </mxCell>
                <mxCell id="3LBCeSW4Zflb0pGlj7fX-200" value="&lt;span style=&quot;font-size: 16px;&quot;&gt;/users/id&lt;/span&gt;" style="shape=partialRectangle;html=1;whiteSpace=wrap;connectable=0;fillColor=none;top=0;left=0;bottom=0;right=0;overflow=hidden;" vertex="1" parent="3LBCeSW4Zflb0pGlj7fX-199">
                    <mxGeometry width="233" height="25" as="geometry">
                        <mxRectangle width="233" height="25" as="alternateBounds"/>
                    </mxGeometry>
                </mxCell>
                <mxCell id="3LBCeSW4Zflb0pGlj7fX-201" value="&lt;span style=&quot;font-size: 14px;&quot;&gt;DELETE&lt;/span&gt;" style="shape=partialRectangle;html=1;whiteSpace=wrap;connectable=0;fillColor=none;top=0;left=0;bottom=0;right=0;overflow=hidden;" vertex="1" parent="3LBCeSW4Zflb0pGlj7fX-199">
                    <mxGeometry x="233" width="234" height="25" as="geometry">
                        <mxRectangle width="234" height="25" as="alternateBounds"/>
                    </mxGeometry>
                </mxCell>
                <mxCell id="3LBCeSW4Zflb0pGlj7fX-202" value="ADMIN Delete a user" style="shape=partialRectangle;html=1;whiteSpace=wrap;connectable=0;fillColor=none;top=0;left=0;bottom=0;right=0;overflow=hidden;fontSize=14;" vertex="1" parent="3LBCeSW4Zflb0pGlj7fX-199">
                    <mxGeometry x="467" width="233" height="25" as="geometry">
                        <mxRectangle width="233" height="25" as="alternateBounds"/>
                    </mxGeometry>
                </mxCell>
                <mxCell id="3LBCeSW4Zflb0pGlj7fX-195" style="shape=tableRow;horizontal=0;startSize=0;swimlaneHead=0;swimlaneBody=0;top=0;left=0;bottom=0;right=0;collapsible=0;dropTarget=0;fillColor=none;points=[[0,0.5],[1,0.5]];portConstraint=eastwest;" vertex="1" parent="39">
                    <mxGeometry y="764" width="700" height="26" as="geometry"/>
                </mxCell>
                <mxCell id="3LBCeSW4Zflb0pGlj7fX-196" style="shape=partialRectangle;html=1;whiteSpace=wrap;connectable=0;fillColor=none;top=0;left=0;bottom=0;right=0;overflow=hidden;" vertex="1" parent="3LBCeSW4Zflb0pGlj7fX-195">
                    <mxGeometry width="233" height="26" as="geometry">
                        <mxRectangle width="233" height="26" as="alternateBounds"/>
                    </mxGeometry>
                </mxCell>
                <mxCell id="3LBCeSW4Zflb0pGlj7fX-197" style="shape=partialRectangle;html=1;whiteSpace=wrap;connectable=0;fillColor=none;top=0;left=0;bottom=0;right=0;overflow=hidden;" vertex="1" parent="3LBCeSW4Zflb0pGlj7fX-195">
                    <mxGeometry x="233" width="234" height="26" as="geometry">
                        <mxRectangle width="234" height="26" as="alternateBounds"/>
                    </mxGeometry>
                </mxCell>
                <mxCell id="3LBCeSW4Zflb0pGlj7fX-198" style="shape=partialRectangle;html=1;whiteSpace=wrap;connectable=0;fillColor=none;top=0;left=0;bottom=0;right=0;overflow=hidden;" vertex="1" parent="3LBCeSW4Zflb0pGlj7fX-195">
                    <mxGeometry x="467" width="233" height="26" as="geometry">
                        <mxRectangle width="233" height="26" as="alternateBounds"/>
                    </mxGeometry>
                </mxCell>
                <mxCell id="3LBCeSW4Zflb0pGlj7fX-191" style="shape=tableRow;horizontal=0;startSize=0;swimlaneHead=0;swimlaneBody=0;top=0;left=0;bottom=0;right=0;collapsible=0;dropTarget=0;fillColor=none;points=[[0,0.5],[1,0.5]];portConstraint=eastwest;" vertex="1" parent="39">
                    <mxGeometry y="790" width="700" height="26" as="geometry"/>
                </mxCell>
                <mxCell id="3LBCeSW4Zflb0pGlj7fX-192" value="&lt;font style=&quot;font-size: 16px;&quot;&gt;/restaurant/id/dishes&lt;/font&gt;" style="shape=partialRectangle;html=1;whiteSpace=wrap;connectable=0;fillColor=none;top=0;left=0;bottom=0;right=0;overflow=hidden;" vertex="1" parent="3LBCeSW4Zflb0pGlj7fX-191">
                    <mxGeometry width="233" height="26" as="geometry">
                        <mxRectangle width="233" height="26" as="alternateBounds"/>
                    </mxGeometry>
                </mxCell>
                <mxCell id="3LBCeSW4Zflb0pGlj7fX-193" value="&lt;span style=&quot;font-size: 14px;&quot;&gt;GET&lt;/span&gt;" style="shape=partialRectangle;html=1;whiteSpace=wrap;connectable=0;fillColor=none;top=0;left=0;bottom=0;right=0;overflow=hidden;" vertex="1" parent="3LBCeSW4Zflb0pGlj7fX-191">
                    <mxGeometry x="233" width="234" height="26" as="geometry">
                        <mxRectangle width="234" height="26" as="alternateBounds"/>
                    </mxGeometry>
                </mxCell>
                <mxCell id="3LBCeSW4Zflb0pGlj7fX-194" value="Display dishes for restaurant" style="shape=partialRectangle;html=1;whiteSpace=wrap;connectable=0;fillColor=none;top=0;left=0;bottom=0;right=0;overflow=hidden;fontSize=14;" vertex="1" parent="3LBCeSW4Zflb0pGlj7fX-191">
                    <mxGeometry x="467" width="233" height="26" as="geometry">
                        <mxRectangle width="233" height="26" as="alternateBounds"/>
                    </mxGeometry>
                </mxCell>
                <mxCell id="3LBCeSW4Zflb0pGlj7fX-187" style="shape=tableRow;horizontal=0;startSize=0;swimlaneHead=0;swimlaneBody=0;top=0;left=0;bottom=0;right=0;collapsible=0;dropTarget=0;fillColor=none;points=[[0,0.5],[1,0.5]];portConstraint=eastwest;" vertex="1" parent="39">
                    <mxGeometry y="816" width="700" height="25" as="geometry"/>
                </mxCell>
                <mxCell id="3LBCeSW4Zflb0pGlj7fX-188" value="&lt;span style=&quot;font-size: 16px;&quot;&gt;/restaurant/id/dishes&lt;/span&gt;" style="shape=partialRectangle;html=1;whiteSpace=wrap;connectable=0;fillColor=none;top=0;left=0;bottom=0;right=0;overflow=hidden;" vertex="1" parent="3LBCeSW4Zflb0pGlj7fX-187">
                    <mxGeometry width="233" height="25" as="geometry">
                        <mxRectangle width="233" height="25" as="alternateBounds"/>
                    </mxGeometry>
                </mxCell>
                <mxCell id="3LBCeSW4Zflb0pGlj7fX-189" value="POST" style="shape=partialRectangle;html=1;whiteSpace=wrap;connectable=0;fillColor=none;top=0;left=0;bottom=0;right=0;overflow=hidden;fontSize=14;" vertex="1" parent="3LBCeSW4Zflb0pGlj7fX-187">
                    <mxGeometry x="233" width="234" height="25" as="geometry">
                        <mxRectangle width="234" height="25" as="alternateBounds"/>
                    </mxGeometry>
                </mxCell>
                <mxCell id="3LBCeSW4Zflb0pGlj7fX-190" value="POST a dish for a restaurant" style="shape=partialRectangle;html=1;whiteSpace=wrap;connectable=0;fillColor=none;top=0;left=0;bottom=0;right=0;overflow=hidden;fontSize=14;" vertex="1" parent="3LBCeSW4Zflb0pGlj7fX-187">
                    <mxGeometry x="467" width="233" height="25" as="geometry">
                        <mxRectangle width="233" height="25" as="alternateBounds"/>
                    </mxGeometry>
                </mxCell>
                <mxCell id="3LBCeSW4Zflb0pGlj7fX-183" style="shape=tableRow;horizontal=0;startSize=0;swimlaneHead=0;swimlaneBody=0;top=0;left=0;bottom=0;right=0;collapsible=0;dropTarget=0;fillColor=none;points=[[0,0.5],[1,0.5]];portConstraint=eastwest;" vertex="1" parent="39">
                    <mxGeometry y="841" width="700" height="26" as="geometry"/>
                </mxCell>
                <mxCell id="3LBCeSW4Zflb0pGlj7fX-184" value="" style="shape=partialRectangle;html=1;whiteSpace=wrap;connectable=0;fillColor=none;top=0;left=0;bottom=0;right=0;overflow=hidden;fontSize=16;" vertex="1" parent="3LBCeSW4Zflb0pGlj7fX-183">
                    <mxGeometry width="233" height="26" as="geometry">
                        <mxRectangle width="233" height="26" as="alternateBounds"/>
                    </mxGeometry>
                </mxCell>
                <mxCell id="3LBCeSW4Zflb0pGlj7fX-185" style="shape=partialRectangle;html=1;whiteSpace=wrap;connectable=0;fillColor=none;top=0;left=0;bottom=0;right=0;overflow=hidden;" vertex="1" parent="3LBCeSW4Zflb0pGlj7fX-183">
                    <mxGeometry x="233" width="234" height="26" as="geometry">
                        <mxRectangle width="234" height="26" as="alternateBounds"/>
                    </mxGeometry>
                </mxCell>
                <mxCell id="3LBCeSW4Zflb0pGlj7fX-186" style="shape=partialRectangle;html=1;whiteSpace=wrap;connectable=0;fillColor=none;top=0;left=0;bottom=0;right=0;overflow=hidden;" vertex="1" parent="3LBCeSW4Zflb0pGlj7fX-183">
                    <mxGeometry x="467" width="233" height="26" as="geometry">
                        <mxRectangle width="233" height="26" as="alternateBounds"/>
                    </mxGeometry>
                </mxCell>
                <mxCell id="3LBCeSW4Zflb0pGlj7fX-167" style="shape=tableRow;horizontal=0;startSize=0;swimlaneHead=0;swimlaneBody=0;top=0;left=0;bottom=0;right=0;collapsible=0;dropTarget=0;fillColor=none;points=[[0,0.5],[1,0.5]];portConstraint=eastwest;" vertex="1" parent="39">
                    <mxGeometry y="867" width="700" height="25" as="geometry"/>
                </mxCell>
                <mxCell id="3LBCeSW4Zflb0pGlj7fX-168" value="&lt;span style=&quot;font-size: 16px;&quot;&gt;/restaurant/id/dishes/id&lt;/span&gt;" style="shape=partialRectangle;html=1;whiteSpace=wrap;connectable=0;fillColor=none;top=0;left=0;bottom=0;right=0;overflow=hidden;" vertex="1" parent="3LBCeSW4Zflb0pGlj7fX-167">
                    <mxGeometry width="233" height="25" as="geometry">
                        <mxRectangle width="233" height="25" as="alternateBounds"/>
                    </mxGeometry>
                </mxCell>
                <mxCell id="3LBCeSW4Zflb0pGlj7fX-169" value="&lt;span style=&quot;font-size: 14px;&quot;&gt;PATCH&lt;/span&gt;" style="shape=partialRectangle;html=1;whiteSpace=wrap;connectable=0;fillColor=none;top=0;left=0;bottom=0;right=0;overflow=hidden;" vertex="1" parent="3LBCeSW4Zflb0pGlj7fX-167">
                    <mxGeometry x="233" width="234" height="25" as="geometry">
                        <mxRectangle width="234" height="25" as="alternateBounds"/>
                    </mxGeometry>
                </mxCell>
                <mxCell id="3LBCeSW4Zflb0pGlj7fX-170" value="&lt;span style=&quot;font-size: 14px;&quot;&gt;Update dish info&lt;/span&gt;" style="shape=partialRectangle;html=1;whiteSpace=wrap;connectable=0;fillColor=none;top=0;left=0;bottom=0;right=0;overflow=hidden;" vertex="1" parent="3LBCeSW4Zflb0pGlj7fX-167">
                    <mxGeometry x="467" width="233" height="25" as="geometry">
                        <mxRectangle width="233" height="25" as="alternateBounds"/>
                    </mxGeometry>
                </mxCell>
                <mxCell id="3LBCeSW4Zflb0pGlj7fX-163" style="shape=tableRow;horizontal=0;startSize=0;swimlaneHead=0;swimlaneBody=0;top=0;left=0;bottom=0;right=0;collapsible=0;dropTarget=0;fillColor=none;points=[[0,0.5],[1,0.5]];portConstraint=eastwest;" vertex="1" parent="39">
                    <mxGeometry y="892" width="700" height="26" as="geometry"/>
                </mxCell>
                <mxCell id="3LBCeSW4Zflb0pGlj7fX-164" value="&lt;span style=&quot;font-size: 16px;&quot;&gt;/restaurant/id/dishes/id&lt;/span&gt;" style="shape=partialRectangle;html=1;whiteSpace=wrap;connectable=0;fillColor=none;top=0;left=0;bottom=0;right=0;overflow=hidden;" vertex="1" parent="3LBCeSW4Zflb0pGlj7fX-163">
                    <mxGeometry width="233" height="26" as="geometry">
                        <mxRectangle width="233" height="26" as="alternateBounds"/>
                    </mxGeometry>
                </mxCell>
                <mxCell id="3LBCeSW4Zflb0pGlj7fX-165" value="DELETE" style="shape=partialRectangle;html=1;whiteSpace=wrap;connectable=0;fillColor=none;top=0;left=0;bottom=0;right=0;overflow=hidden;fontSize=15;" vertex="1" parent="3LBCeSW4Zflb0pGlj7fX-163">
                    <mxGeometry x="233" width="234" height="26" as="geometry">
                        <mxRectangle width="234" height="26" as="alternateBounds"/>
                    </mxGeometry>
                </mxCell>
                <mxCell id="3LBCeSW4Zflb0pGlj7fX-166" value="Delete Dish" style="shape=partialRectangle;html=1;whiteSpace=wrap;connectable=0;fillColor=none;top=0;left=0;bottom=0;right=0;overflow=hidden;fontSize=14;" vertex="1" parent="3LBCeSW4Zflb0pGlj7fX-163">
                    <mxGeometry x="467" width="233" height="26" as="geometry">
                        <mxRectangle width="233" height="26" as="alternateBounds"/>
                    </mxGeometry>
                </mxCell>
                <mxCell id="3LBCeSW4Zflb0pGlj7fX-215" style="shape=tableRow;horizontal=0;startSize=0;swimlaneHead=0;swimlaneBody=0;top=0;left=0;bottom=0;right=0;collapsible=0;dropTarget=0;fillColor=none;points=[[0,0.5],[1,0.5]];portConstraint=eastwest;" vertex="1" parent="39">
                    <mxGeometry y="918" width="700" height="25" as="geometry"/>
                </mxCell>
                <mxCell id="3LBCeSW4Zflb0pGlj7fX-216" style="shape=partialRectangle;html=1;whiteSpace=wrap;connectable=0;fillColor=none;top=0;left=0;bottom=0;right=0;overflow=hidden;" vertex="1" parent="3LBCeSW4Zflb0pGlj7fX-215">
                    <mxGeometry width="233" height="25" as="geometry">
                        <mxRectangle width="233" height="25" as="alternateBounds"/>
                    </mxGeometry>
                </mxCell>
                <mxCell id="3LBCeSW4Zflb0pGlj7fX-217" style="shape=partialRectangle;html=1;whiteSpace=wrap;connectable=0;fillColor=none;top=0;left=0;bottom=0;right=0;overflow=hidden;" vertex="1" parent="3LBCeSW4Zflb0pGlj7fX-215">
                    <mxGeometry x="233" width="234" height="25" as="geometry">
                        <mxRectangle width="234" height="25" as="alternateBounds"/>
                    </mxGeometry>
                </mxCell>
                <mxCell id="3LBCeSW4Zflb0pGlj7fX-218" style="shape=partialRectangle;html=1;whiteSpace=wrap;connectable=0;fillColor=none;top=0;left=0;bottom=0;right=0;overflow=hidden;" vertex="1" parent="3LBCeSW4Zflb0pGlj7fX-215">
                    <mxGeometry x="467" width="233" height="25" as="geometry">
                        <mxRectangle width="233" height="25" as="alternateBounds"/>
                    </mxGeometry>
                </mxCell>
                <mxCell id="3LBCeSW4Zflb0pGlj7fX-211" style="shape=tableRow;horizontal=0;startSize=0;swimlaneHead=0;swimlaneBody=0;top=0;left=0;bottom=0;right=0;collapsible=0;dropTarget=0;fillColor=none;points=[[0,0.5],[1,0.5]];portConstraint=eastwest;" vertex="1" parent="39">
                    <mxGeometry y="943" width="700" height="26" as="geometry"/>
                </mxCell>
                <mxCell id="3LBCeSW4Zflb0pGlj7fX-212" style="shape=partialRectangle;html=1;whiteSpace=wrap;connectable=0;fillColor=none;top=0;left=0;bottom=0;right=0;overflow=hidden;" vertex="1" parent="3LBCeSW4Zflb0pGlj7fX-211">
                    <mxGeometry width="233" height="26" as="geometry">
                        <mxRectangle width="233" height="26" as="alternateBounds"/>
                    </mxGeometry>
                </mxCell>
                <mxCell id="3LBCeSW4Zflb0pGlj7fX-213" style="shape=partialRectangle;html=1;whiteSpace=wrap;connectable=0;fillColor=none;top=0;left=0;bottom=0;right=0;overflow=hidden;" vertex="1" parent="3LBCeSW4Zflb0pGlj7fX-211">
                    <mxGeometry x="233" width="234" height="26" as="geometry">
                        <mxRectangle width="234" height="26" as="alternateBounds"/>
                    </mxGeometry>
                </mxCell>
                <mxCell id="3LBCeSW4Zflb0pGlj7fX-214" style="shape=partialRectangle;html=1;whiteSpace=wrap;connectable=0;fillColor=none;top=0;left=0;bottom=0;right=0;overflow=hidden;" vertex="1" parent="3LBCeSW4Zflb0pGlj7fX-211">
                    <mxGeometry x="467" width="233" height="26" as="geometry">
                        <mxRectangle width="233" height="26" as="alternateBounds"/>
                    </mxGeometry>
                </mxCell>
            </root>
        </mxGraphModel>
    </diagram>
</mxfile>